<svg width="32" height="32" viewBox="0 0 32 32" fill="none" xmlns="http://www.w3.org/2000/svg">
<g clip-path="url(#clip0_7294_95187)">
<path d="M5.29494 16.4163C5.31962 16.8052 5.26238 17.1949 5.12694 17.5603C4.99037 17.9242 4.78073 18.2564 4.51094 18.5363C4.24061 18.8143 3.91677 19.0348 3.55894 19.1843C3.19977 19.3357 2.81261 19.4093 2.42294 19.4003C2.23916 19.4094 2.0653 19.4864 1.93494 19.6163C1.80276 19.7458 1.72301 19.9196 1.71094 20.1043V20.3843C1.72114 21.7029 2.16433 22.9817 2.97234 24.0239C3.78034 25.066 4.90839 25.8139 6.18294 26.1523C12.6742 27.5351 19.3853 27.5215 25.8709 26.1123C27.1463 25.7707 28.2734 25.0181 29.0776 23.9709C29.8818 22.9238 30.3181 21.6406 30.3189 20.3203V20.0403C30.3108 19.8531 30.2371 19.6747 30.1109 19.5363C29.976 19.4013 29.7972 19.319 29.6069 19.3043C29.2173 19.3126 28.8303 19.239 28.4709 19.0883C28.1136 18.9415 27.7897 18.7238 27.5189 18.4483C27.2493 18.1667 27.0374 17.8351 26.8949 17.4723C26.7614 17.1091 26.7015 16.7229 26.7189 16.3363C26.7531 15.3649 27.0472 14.4205 27.5707 13.6016C28.0941 12.7826 28.8277 12.1191 29.6949 11.6803C29.7996 11.6133 29.8873 11.5229 29.9509 11.4163C30.0059 11.3064 30.0385 11.1868 30.0469 11.0643V10.4563C29.9589 7.93626 27.9189 6.56826 25.4949 7.09626C19.2629 8.45214 12.8138 8.4685 6.57494 7.14426C4.09494 6.59226 2.07894 8.00026 2.01494 10.5123V11.1203C2.00907 11.259 2.03939 11.3968 2.10294 11.5203C2.17244 11.6464 2.27471 11.7514 2.39894 11.8243C3.24623 12.2632 3.96121 12.92 4.47023 13.7272C4.97926 14.5343 5.26393 15.4625 5.29494 16.4163Z" fill="#FF9900"/>
<path d="M1.9375 8.99231V11.1043H3.9055L1.9375 8.99231Z" fill="#FF9900"/>
<path d="M1.69531 18.7922V20.9122H3.66331L1.69531 18.7922Z" fill="#FF9900"/>
<path d="M30.2805 18.7922V20.9122H28.3125L30.2805 18.7922Z" fill="#FF9900"/>
<path d="M29.976 9.04797V11.16H28L29.976 9.04797Z" fill="#FF9900"/>
<path d="M15.8704 24.0403C12.6766 24.0391 9.49155 23.7067 6.36638 23.0483C5.33065 22.7613 4.41569 22.1466 3.75838 21.2963C3.10379 20.4506 2.74413 19.4137 2.73437 18.3443C3.73876 18.2764 4.67767 17.8217 5.35357 17.0756C6.02947 16.3296 6.38967 15.3505 6.35838 14.3443C6.33421 13.213 6.0105 12.1082 5.42025 11.1428C4.83 10.1773 3.99432 9.38557 2.99838 8.84831V8.41631C2.97348 8.08955 3.0227 7.76138 3.14238 7.45631C3.26071 7.15382 3.44363 6.8808 3.67838 6.65631C3.90462 6.42561 4.17731 6.24563 4.47838 6.12831C4.78642 6.00929 5.11703 5.96011 5.44637 5.98431C5.71517 5.98161 5.98344 6.00844 6.24637 6.06431C9.40314 6.72812 12.6206 7.06059 15.8464 7.05631C19.1278 7.05584 22.3997 6.70451 25.6064 6.00831C25.8686 5.94748 26.1372 5.91794 26.4064 5.92031C26.7357 5.89611 27.0663 5.94529 27.3744 6.06431C27.6754 6.18163 27.9481 6.36161 28.1744 6.59231C28.4068 6.81709 28.5871 7.0902 28.7024 7.39231C28.8326 7.68978 28.8981 8.01158 28.8944 8.33631V8.76831C27.9038 9.31385 27.0741 10.1103 26.4886 11.0778C25.903 12.0452 25.5822 13.1497 25.5584 14.2803C25.5293 15.2886 25.8924 16.2688 26.5713 17.0148C27.2501 17.7608 28.1919 18.2145 29.1984 18.2803C29.1937 19.3507 28.8395 20.3903 28.1896 21.2408C27.5398 22.0914 26.6299 22.7064 25.5984 22.9923C22.4019 23.6845 19.141 24.0358 15.8704 24.0403Z" fill="#FFE802"/>
<path d="M26.4321 6.95218C26.6089 6.92926 26.7887 6.94288 26.9601 6.99218C27.1325 7.04447 27.291 7.13468 27.4241 7.25618C27.5613 7.37164 27.6706 7.51657 27.7441 7.68018C27.8153 7.84413 27.8508 8.02142 27.8481 8.20018C26.8393 8.86952 26.0099 9.77592 25.4325 10.84C24.8551 11.9042 24.5473 13.0936 24.5361 14.3042C24.5345 15.3773 24.8771 16.4226 25.5136 17.2865C26.15 18.1505 27.0468 18.7876 28.0721 19.1042C27.91 19.7641 27.5792 20.3706 27.1121 20.8642C26.6416 21.3592 26.0522 21.7255 25.4001 21.9282C22.2697 22.6085 19.0755 22.9517 15.8721 22.9522C12.7421 22.9528 9.62079 22.623 6.56006 21.9682C5.90589 21.769 5.31371 21.4054 4.84006 20.9122C4.37522 20.4157 4.04238 19.8106 3.87206 19.1522C4.90659 18.8328 5.81002 18.1873 6.44735 17.312C7.08468 16.4368 7.4217 15.3788 7.40806 14.2962C7.3907 13.0972 7.07742 11.921 6.49606 10.8722C5.91686 9.8164 5.09407 8.91407 4.09606 8.24018C4.09497 8.06157 4.13036 7.88463 4.20006 7.72018C4.27527 7.55743 4.38121 7.41074 4.51206 7.28818C4.64851 7.17086 4.80789 7.08324 4.98006 7.0309C5.15223 6.97856 5.33341 6.96265 5.51206 6.98418C5.70238 6.99095 5.89209 7.00965 6.08006 7.04018C9.30319 7.73595 12.5907 8.08991 15.8881 8.09618C19.2501 8.08898 22.602 7.72697 25.8881 7.01618C26.0878 6.97303 26.2917 6.95157 26.4961 6.95218H26.4321ZM26.4961 4.85618C26.1455 4.86414 25.7969 4.90974 25.4561 4.99218C22.3015 5.6719 19.083 6.00985 15.8561 6.00018C12.7094 5.99277 9.57217 5.65492 6.49606 4.99218C6.16745 4.92158 5.83217 4.88671 5.49606 4.88818C5.02927 4.86427 4.56263 4.93801 4.12596 5.10468C3.68929 5.27136 3.2922 5.52732 2.96006 5.85618C2.61552 6.17667 2.34286 6.56658 2.16006 7.00018C1.98644 7.43212 1.90207 7.89475 1.91206 8.36018V8.99218C1.90384 9.13461 1.9372 9.27636 2.00806 9.40018C2.07871 9.52337 2.18087 9.62553 2.30406 9.69618C3.16951 10.1331 3.90205 10.7939 4.42545 11.6099C4.94884 12.426 5.24395 13.3674 5.28006 14.3362C5.2967 14.7195 5.23967 15.1024 5.11206 15.4642C4.97833 15.8253 4.77132 16.1549 4.50406 16.4322C4.23989 16.7122 3.92141 16.9354 3.56806 17.0882C3.21501 17.242 2.83311 17.3184 2.44806 17.3122H2.37606C2.19378 17.3313 2.0236 17.4125 1.894 17.5421C1.76439 17.6717 1.68322 17.8419 1.66406 18.0242V18.3042C1.67825 19.6218 2.12294 20.8987 2.93033 21.94C3.73772 22.9814 4.86351 23.7302 6.13606 24.0722C9.32094 24.7526 12.5673 25.1038 15.8241 25.1202C19.1921 25.1179 22.5501 24.7531 25.8401 24.0322C27.1119 23.6856 28.235 22.9313 29.037 21.8851C29.839 20.8388 30.2757 19.5584 30.2801 18.2402V17.9602C30.2697 17.772 30.1932 17.5935 30.0641 17.4562C29.9352 17.3172 29.7573 17.234 29.5681 17.2242H29.4961C29.1109 17.2229 28.73 17.144 28.3761 16.9922C28.0231 16.8424 27.7045 16.6218 27.4401 16.3442C27.177 16.0713 26.9728 15.7472 26.8401 15.3922C26.7061 15.0346 26.6462 14.6536 26.6641 14.2722C26.6959 13.3033 26.9864 12.3606 27.5055 11.5419C28.0246 10.7231 28.7533 10.0582 29.6161 9.61618C29.7441 9.55201 29.8479 9.44818 29.9121 9.32018C29.9829 9.19636 30.0163 9.05461 30.0081 8.91218V8.30418C30.0215 7.84183 29.9398 7.38165 29.7681 6.95218C29.5951 6.5188 29.3336 6.12631 29.0002 5.79983C28.6668 5.47334 28.269 5.22005 27.8321 5.05618C27.4077 4.88663 26.9527 4.80761 26.4961 4.82418V4.85618Z" fill="#FFE802"/>
<path d="M22.4343 22.6323C22.5833 22.6331 22.7283 22.6807 22.8489 22.7682C22.9694 22.8557 23.0595 22.9789 23.1063 23.1203C23.1703 23.2963 23.2023 23.3923 23.2103 23.4003C23.2468 23.4858 23.2657 23.5777 23.2661 23.6706C23.2664 23.7635 23.2482 23.8556 23.2124 23.9413C23.1766 24.0271 23.124 24.1048 23.0577 24.1699C22.9914 24.235 22.9127 24.2861 22.8263 24.3203C22.6514 24.3882 22.4573 24.3882 22.2823 24.3203C22.1091 24.2474 21.9713 24.1095 21.8983 23.9363L21.7623 23.5603C21.7459 23.4677 21.7459 23.3729 21.7623 23.2803C21.7726 23.1856 21.7997 23.0935 21.8423 23.0083C21.8903 22.9259 21.9526 22.8528 22.0263 22.7923C22.099 22.7326 22.1835 22.6889 22.2743 22.6643C22.3264 22.6482 22.3801 22.6375 22.4343 22.6323Z" fill="#FF9900"/>
<path d="M21.1339 9.28857C21.3199 9.29123 21.4976 9.36577 21.6299 9.49657C21.6957 9.56132 21.748 9.63852 21.7837 9.72367C21.8194 9.80883 21.8378 9.90023 21.8379 9.99257V10.6566C21.8385 10.7502 21.8204 10.843 21.7846 10.9295C21.7489 11.0161 21.6963 11.0946 21.6299 11.1606C21.4968 11.2892 21.3189 11.3609 21.1339 11.3606C20.9464 11.3613 20.7658 11.2897 20.6299 11.1606C20.4986 11.0254 20.4241 10.845 20.4219 10.6566V9.95257C20.4356 9.77294 20.5154 9.60477 20.6459 9.48057C20.7786 9.3575 20.9529 9.28895 21.1339 9.28857ZM21.1339 12.6646C21.3189 12.6643 21.4968 12.736 21.6299 12.8646C21.6963 12.9305 21.7489 13.0091 21.7846 13.0956C21.8204 13.1822 21.8385 13.275 21.8379 13.3686V14.0326C21.8385 14.1262 21.8204 14.219 21.7846 14.3055C21.7489 14.3921 21.6963 14.4706 21.6299 14.5366C21.4976 14.6674 21.3199 14.7419 21.1339 14.7446C20.945 14.7446 20.7639 14.6696 20.6304 14.536C20.4969 14.4025 20.4219 14.2214 20.4219 14.0326V13.3286C20.4245 13.1426 20.4991 12.9648 20.6299 12.8326C20.6958 12.7661 20.7744 12.7135 20.8609 12.6778C20.9475 12.6421 21.0403 12.624 21.1339 12.6246V12.6646ZM21.2939 15.9926C21.4723 15.9942 21.6436 16.0627 21.7739 16.1846C21.8404 16.2413 21.8945 16.311 21.9331 16.3894C21.9716 16.4678 21.9936 16.5533 21.9979 16.6406C21.9979 16.8726 22.0459 17.0966 22.0619 17.3046C22.0783 17.3972 22.0783 17.492 22.0619 17.5846C22.0354 17.6722 21.9919 17.7538 21.9339 17.8246C21.8714 17.8941 21.7985 17.9534 21.7179 18.0006C21.6352 18.0423 21.5458 18.0694 21.4539 18.0806C21.3616 18.1007 21.2661 18.1007 21.1739 18.0806C21.0838 18.0541 20.9996 18.0107 20.9259 17.9526C20.8566 17.892 20.7996 17.8187 20.7579 17.7366C20.7111 17.656 20.6837 17.5656 20.6779 17.4726C20.6858 17.2365 20.6671 17.0004 20.6219 16.7686C20.6142 16.6769 20.626 16.5847 20.6563 16.4979C20.6866 16.411 20.7348 16.3316 20.7979 16.2646C20.9215 16.1264 21.0932 16.0405 21.2779 16.0246L21.2939 15.9926ZM21.6939 19.3366C21.8639 19.3347 22.0288 19.3944 22.1582 19.5047C22.2876 19.615 22.3728 19.7684 22.3979 19.9366C22.3979 20.1606 22.4699 20.3766 22.5019 20.5846C22.5343 20.7721 22.4911 20.9648 22.3819 21.1206C22.2713 21.2755 22.105 21.3816 21.9179 21.4166C21.7351 21.4401 21.5503 21.3926 21.4015 21.284C21.2527 21.1754 21.1512 21.0138 21.1179 20.8326C21.0964 20.5957 21.059 20.3605 21.0059 20.1286C20.9788 19.9427 21.0247 19.7535 21.1339 19.6006C21.2513 19.4561 21.4153 19.3571 21.5979 19.3206L21.6939 19.3366Z" fill="#FF9900"/>
<path d="M21.2614 6.27222C21.4447 6.2807 21.6172 6.3612 21.7414 6.49622C21.8633 6.62651 21.9318 6.79781 21.9334 6.97622V7.32822C21.935 7.42448 21.9159 7.51997 21.8774 7.60822C21.8383 7.69441 21.7841 7.77296 21.7174 7.84022C21.6481 7.90995 21.563 7.96207 21.4694 7.99222C21.3797 8.02479 21.2849 8.04105 21.1894 8.04022C21.0952 8.03247 21.0031 8.0081 20.9174 7.96822C20.834 7.92866 20.7603 7.87132 20.7014 7.80022C20.6369 7.73136 20.5878 7.64954 20.5574 7.56022C20.524 7.47365 20.5104 7.38073 20.5174 7.28822V7.00022C20.5256 6.81304 20.5992 6.63468 20.7254 6.49622C20.7955 6.4252 20.8789 6.36883 20.9709 6.33037C21.0629 6.29191 21.1617 6.27215 21.2614 6.27222Z" fill="#FF9900"/>
</g>
<path d="M15.4781 16.0399C15.2012 16.0399 14.9306 16.1221 14.7003 16.2759C14.4701 16.4297 14.2907 16.6484 14.1847 16.9042C14.0787 17.16 14.051 17.4415 14.105 17.7131C14.159 17.9846 14.2924 18.2341 14.4882 18.4299C14.684 18.6257 14.9334 18.759 15.205 18.813C15.4766 18.8671 15.7581 18.8393 16.0139 18.7334C16.2697 18.6274 16.4883 18.448 16.6422 18.2177C16.796 17.9875 16.8781 17.7168 16.8781 17.44C16.8915 17.2527 16.8645 17.0647 16.7988 16.8888C16.7332 16.7128 16.6305 16.5531 16.4978 16.4203C16.365 16.2875 16.2052 16.1849 16.0293 16.1192C15.8534 16.0536 15.6654 16.0266 15.4781 16.0399Z" fill="#FF9900"/>
<path d="M10.4006 13.8C10.6775 13.8 10.9482 13.7179 11.1784 13.5641C11.4086 13.4102 11.5881 13.1916 11.694 12.9358C11.8 12.6799 11.8277 12.3984 11.7737 12.1269C11.7197 11.8553 11.5863 11.6058 11.3906 11.4101C11.1948 11.2143 10.9453 11.0809 10.6737 11.0269C10.4022 10.9729 10.1207 11.0006 9.86485 11.1066C9.60903 11.2125 9.39038 11.392 9.23655 11.6222C9.08271 11.8524 9.00061 12.1231 9.00061 12.4C8.99507 12.5854 9.0275 12.7699 9.09589 12.9422C9.16429 13.1146 9.26721 13.2712 9.39833 13.4023C9.52946 13.5334 9.68601 13.6363 9.85837 13.7047C10.0307 13.7731 10.2153 13.8055 10.4006 13.8Z" fill="#FF9900"/>
<path d="M16.5918 11.2701C16.4512 11.1297 16.2606 11.0508 16.0618 11.0508C15.8631 11.0508 15.6725 11.1297 15.5318 11.2701L9.53184 17.2701C9.39139 17.4107 9.3125 17.6014 9.3125 17.8001C9.3125 17.9989 9.39139 18.1895 9.53184 18.3301C9.67247 18.4706 9.86309 18.5495 10.0618 18.5495C10.2606 18.5495 10.4512 18.4706 10.5918 18.3301L16.5918 12.3301C16.7323 12.1895 16.8112 11.9989 16.8112 11.8001C16.8112 11.6014 16.7323 11.4107 16.5918 11.2701Z" fill="#FF9900"/>
<defs>
<clipPath id="clip0_7294_95187">
<rect width="32" height="32" fill="white" transform="translate(0 0.000244141)"/>
</clipPath>
</defs>
</svg>
